<?xml version="1.0" encoding="utf-8"?>
<!-- Generator: Adobe Illustrator 23.0.3, SVG Export Plug-In . SVG Version: 6.00 Build 0)  -->
<svg version="1.1" id="Layer_2" xmlns="http://www.w3.org/2000/svg" xmlns:xlink="http://www.w3.org/1999/xlink" x="0px" y="0px"
	 viewBox="0 0 434.2 143.82" style="enable-background:new 0 0 434.2 143.82;" xml:space="preserve">
<style type="text/css">
	.st0{fill:#F3911D;}
</style>
<g>
	<path class="st0" d="M73.16,109.04H54.78v-3.75c-2.33,1.92-4.88,3.31-7.63,4.19s-5.67,1.31-8.75,1.31c-5.08,0-9.75-1.02-14-3.06
		s-7.92-4.79-11-8.25C10.32,96.02,7.93,92,6.22,87.42C4.51,82.83,3.66,78,3.66,72.92c0-5.42,0.98-10.44,2.94-15.06
		c1.96-4.63,4.56-8.64,7.81-12.06c3.25-3.42,6.96-6.1,11.13-8.06c4.17-1.96,8.46-2.94,12.88-2.94c3.08,0,6.08,0.42,9,1.25
		c2.92,0.83,5.42,2,7.5,3.5V5.29h18.25V109.04z M55.03,89.67V54.92c-0.84-0.58-1.8-1.14-2.89-1.69c-1.09-0.54-2.22-1-3.39-1.38
		c-1.17-0.38-2.34-0.67-3.51-0.88c-1.17-0.21-2.22-0.31-3.14-0.31c-3.01,0-5.75,0.52-8.22,1.56c-2.47,1.04-4.62,2.54-6.46,4.5
		c-1.84,1.96-3.26,4.31-4.27,7.06c-1,2.75-1.51,5.79-1.51,9.13c0,3.25,0.5,6.23,1.51,8.94c1,2.71,2.38,5.04,4.14,7
		c1.76,1.96,3.87,3.48,6.34,4.56c2.47,1.08,5.16,1.63,8.09,1.63C46.5,95.04,50.93,93.25,55.03,89.67z"/>
	<path class="st0" d="M162.78,72.79c0,1.17-0.06,2.38-0.19,3.63s-0.27,2.54-0.44,3.88h-57.75c0.67,2.08,1.6,4.06,2.81,5.94
		c1.21,1.88,2.69,3.5,4.44,4.88s3.73,2.46,5.94,3.25c2.21,0.79,4.64,1.19,7.31,1.19c3.25,0,6.5-0.56,9.75-1.69s5.96-2.64,8.13-4.56
		l11.38,11.38c-5,3.75-9.9,6.4-14.69,7.94c-4.79,1.54-9.86,2.31-15.19,2.31c-5.42,0-10.48-1-15.19-3c-4.71-2-8.79-4.71-12.25-8.13
		c-3.46-3.42-6.19-7.44-8.19-12.06s-3-9.56-3-14.81c0-5.25,1-10.19,3-14.81s4.75-8.64,8.25-12.06c3.5-3.42,7.58-6.13,12.25-8.13
		c4.67-2,9.67-3,15-3c5.08,0,9.96,0.94,14.63,2.81c4.67,1.88,8.79,4.48,12.38,7.81c3.58,3.33,6.42,7.31,8.5,11.94
		C161.74,62.1,162.78,67.21,162.78,72.79z M143.91,65.79c-1.42-4.58-3.94-8.27-7.56-11.06c-3.63-2.79-7.73-4.19-12.31-4.19
		c-4.5,0-8.54,1.4-12.13,4.19c-3.58,2.79-6.08,6.48-7.5,11.06H143.91z"/>
	<path class="st0" d="M204.53,108.67c-1.42,0.67-3.02,1.21-4.81,1.63c-1.79,0.42-3.65,0.63-5.56,0.63c-2.67,0-5.23-0.36-7.69-1.06
		c-2.46-0.71-4.61-1.85-6.44-3.44c-1.83-1.58-3.29-3.64-4.38-6.19c-1.08-2.54-1.63-5.6-1.63-9.19V5.29h18.38v82.63
		c0,3,0.6,5.06,1.81,6.19c1.21,1.13,2.64,1.69,4.31,1.69c2.08,0,4.08-0.63,6-1.88V108.67z"/>
	<path class="st0" d="M276.03,36.79l-27.13,72.38h-17.75l-27.25-72.38h19.75l16.38,48.5l16.38-48.5H276.03z"/>
	<path class="st0" d="M302.9,24.17h-18.75V5.42h18.75V24.17z M302.65,109.04H284.4V36.67h18.25V109.04z"/>
	<path class="st0" d="M359.53,21.79c-1.75-0.67-3.29-1.1-4.63-1.31c-1.33-0.21-2.79-0.31-4.38-0.31c-3.5,0-5.98,0.79-7.44,2.38
		c-1.46,1.58-2.19,4.46-2.19,8.63v5.75h11.38v15.75H340.9v56.38h-18V52.67h-8.75V36.92h8.75v-5.5c0-9.08,1.7-16,5.1-20.75
		s9.37-7.13,17.9-7.13c4.83,0,9.38,0.58,13.63,1.75V21.79z"/>
	<path class="st0" d="M430.65,36.67l-32.5,85.88c-2.42,6.42-5.58,11.04-9.5,13.88c-3.92,2.83-8.58,4.25-14,4.25
		c-0.83,0-1.75-0.06-2.75-0.19s-1.96-0.31-2.88-0.56l-6-16.75c1.42,0.67,2.88,1.19,4.38,1.56s2.92,0.56,4.25,0.56
		c2.83,0,5.42-0.65,7.75-1.94c2.33-1.29,4.13-3.69,5.38-7.19l2.5-7.25L359.4,36.67h19.63l16.63,46.5l15.63-46.5H430.65z"/>
</g>
</svg>
