<?xml version="1.0" encoding="utf-8"?>
<!-- Generator: Adobe Illustrator 24.0.1, SVG Export Plug-In . SVG Version: 6.00 Build 0)  -->
<svg version="1.1" id="Layer_1" xmlns:sketch="http://www.bohemiancoding.com/sketch/ns"
	 xmlns="http://www.w3.org/2000/svg" xmlns:xlink="http://www.w3.org/1999/xlink" x="0px" y="0px" viewBox="0 0 694.6 384.1"
	 style="enable-background:new 0 0 694.6 384.1;" xml:space="preserve">
<style type="text/css">
	.st0{fill-rule:evenodd;clip-rule:evenodd;fill:#FEFEFE;stroke:#8492A5;stroke-width:2;}
	.st1{fill:none;stroke:#8492A5;stroke-width:2;}
	.st2{fill-rule:evenodd;clip-rule:evenodd;fill:#FDFDFD;stroke:#8492A5;stroke-width:2;}
	.st3{fill:none;stroke:#8492A5;stroke-linecap:square;}
	.st4{fill-rule:evenodd;clip-rule:evenodd;fill:#FFFFFF;stroke:#8492A5;}
</style>
<title>IPAD 2</title>
<desc>Created with Sketch.</desc>
<g id="Page-1" sketch:type="MSPage">
	<g id="Laptop" transform="translate(1.000000, 1.000000)" sketch:type="MSLayerGroup">
		<path class="st0" d="M594,0H98C84.5,0,73,11.1,73,24.8V351h546V24.8C619,11.1,607.5,0,594,0z M596.1,331H95V39h501.1V331z"/>
		<circle id="webcam" sketch:type="MSShapeGroup" class="st1" cx="347" cy="19" r="4">
		</circle>
		<g id="bottom" transform="translate(0.000000, 351.000000)" sketch:type="MSShapeGroup">
			<path id="Shape" class="st2" d="M640.8,31H51.3C20.6,31,0,20.5,0,16V2.4C0,1.1,1.3,0,3,0h686.1c1.7,0,3,1.1,3,2.4v14.1
				C692.1,20.1,676.1,31,640.8,31z"/>
			<path id="Line" class="st3" d="M0.5,14.5h689.7"/>
		</g>
		<path id="touchpad" sketch:type="MSShapeGroup" class="st4" d="M421,352v3.1c0,2.2-4.3,2.9-7.6,2.9H278.8c-3.5,0-7.8-0.7-7.8-2.9
			V352"/>
	</g>
</g>
</svg>
